PathFileType	4	(X/Y/Z)	C:/Users/opensim2020/Desktop/walking_exp_matlab/subject01_walking04_straight_03.trc	
DataRate	CameraRate	NumFrames	NumMarkers	Units	OrigDataRate	OrigDataStartFrame	OrigNumFrames	
100.00	100.00	5	43	mm	100.00	2207	211	
Frame#	Time	LFHD			RFHD			LBHD			RBHD			C7			T10			CLAV			STRN			RBAK			LSHO			LUPA			LELB			LFRM			LWRA			LWRB			LFIN			RSHO			RUPA			RELB			RFRM			RWRA			RWRB			RFIN			LASI			RASI			LPSI			RPSI			LTHI			LKNE			LTIB			LANK			LHEE			LTOE			RTHI			RKNE			RTIB			RANK			RHEE			RTOE			*39			*40			*41			*42			
		X1	Y1	Z1	X2	Y2	Z2	X3	Y3	Z3	X4	Y4	Z4	X5	Y5	Z5	X6	Y6	Z6	X7	Y7	Z7	X8	Y8	Z8	X9	Y9	Z9	X10	Y10	Z10	X11	Y11	Z11	X12	Y12	Z12	X13	Y13	Z13	X14	Y14	Z14	X15	Y15	Z15	X16	Y16	Z16	X17	Y17	Z17	X18	Y18	Z18	X19	Y19	Z19	X20	Y20	Z20	X21	Y21	Z21	X22	Y22	Z22	X23	Y23	Z23	X24	Y24	Z24	X25	Y25	Z25	X26	Y26	Z26	X27	Y27	Z27	X28	Y28	Z28	X29	Y29	Z29	X30	Y30	Z30	X31	Y31	Z31	X32	Y32	Z32	X33	Y33	Z33	X34	Y34	Z34	X35	Y35	Z35	X36	Y36	Z36	X37	Y37	Z37	X38	Y38	Z38	X39	Y39	Z39	X40	Y40	Z40	X41	Y41	Z41	X42	Y42	Z42	X43	Y43	Z43	

106	1.050	-1126.48889	-68.08334	1670.43860	-1012.67621	-56.13446	1677.69434	-1119.70227	-184.54031	1624.45007	-998.85565	-175.24681	1630.91309	-1077.33142	-226.16925	1433.31873	-1060.99561	-260.95789	1140.63538	-1068.35315	-81.32101	1367.12610	-1067.48364	-36.99776	1214.02698	-994.31995	-282.11853	1241.16089	-1232.43213	-135.19254	1390.30029	-1317.55676	-137.92436	1204.59570	-1321.68677	-126.38834	1053.16614	-1339.26831	-56.88051	959.60175	-1310.18896	48.35569	872.24786	-1339.67859	0.45442	851.71277	-1343.34924	66.42003	799.66046	-919.67792	-150.65631	1397.37280	-815.17291	-215.55370	1202.61414	-808.67694	-220.10001	1078.03955	-772.94342	-198.56876	960.78284	-786.40790	-123.15607	839.85968	-747.86823	-166.53462	844.68683	-746.60004	-133.50578	765.32300	-1156.02332	-80.73546	933.74396	-939.35474	-91.41844	941.55762	-1107.86621	-270.39737	944.52509	-962.41534	-273.85892	947.43799	-1195.68420	-103.78238	598.94495	-1172.20386	-110.57642	465.09470	-1174.04993	-168.31421	282.22534	-1111.08630	-202.29919	69.55684	-1057.45532	-247.45692	41.60398	-1117.11206	-55.07763	33.98266	-864.47705	-61.58310	618.09918	-880.19086	-21.18422	465.84583	-886.20282	-146.89468	342.84729	-938.80499	-263.45535	174.30804	-999.38812	-314.81357	162.01497	-917.84082	-174.85677	64.28879	-1036.16833	-68.25826	1711.14026	-3101.95947	1972.96643	1023.80145	-3140.54297	2012.55249	1022.06158			 
107	1.060	-1126.02295	-58.11399	1670.50146	-1012.27930	-46.31243	1677.38452	-1119.42773	-174.66777	1624.71582	-998.65985	-165.56035	1630.93347	-1077.45886	-216.84467	1433.55249	-1061.47888	-252.06711	1140.85657	-1068.48352	-71.99738	1367.09326	-1067.91968	-27.90353	1214.00720	-994.71100	-273.05045	1241.42639	-1232.69336	-125.78742	1390.72571	-1318.14929	-127.46282	1205.24048	-1322.47131	-113.81891	1053.81726	-1339.87109	-41.98268	961.83569	-1310.78748	65.71012	877.52087	-1339.83545	18.21162	855.52618	-1343.94373	85.73418	805.55115	-919.72186	-141.30118	1397.28503	-815.82581	-207.84674	1202.62390	-809.59424	-213.01833	1078.33630	-773.62280	-193.61514	960.80334	-786.35535	-120.26968	838.63293	-748.03107	-164.09126	844.18811	-746.67908	-132.28865	764.27991	-1156.64575	-72.18999	933.96552	-940.18573	-82.37861	942.07281	-1107.70898	-261.90436	944.53497	-962.20514	-265.06274	947.62262	-1195.76758	-98.92830	598.46582	-1172.69885	-107.52037	464.68646	-1174.25244	-166.86737	282.41315	-1111.06799	-202.05217	69.83261	-1057.39990	-247.35716	42.13205	-1117.12207	-54.91705	33.89600	-865.07080	-48.66348	619.77612	-881.37665	-6.23490	467.71222	-885.88440	-126.59800	339.02502	-938.32257	-236.48218	165.91887	-998.32062	-288.28735	150.80948	-917.88104	-142.14546	61.50360	-1035.65991	-58.25310	1710.99097	-3101.86499	1973.09180	1023.26367	-3140.64844	2012.48804	1022.02911			 
108	1.070	-1125.54187	-48.19343	1670.42297	-1011.61859	-36.48926	1677.21887	-1119.22363	-164.82828	1624.91113	-998.39282	-155.80281	1630.82422	-1077.48779	-207.25883	1433.68787	-1061.87585	-243.06120	1141.11560	-1068.51758	-62.61131	1367.01514	-1068.32800	-18.76845	1213.88684	-995.15784	-263.91733	1241.50549	-1232.70349	-116.35495	1391.02478	-1318.62500	-117.03596	1205.85193	-1323.42627	-101.22896	1054.52258	-1340.42102	-27.20816	964.04797	-1311.08508	82.65166	882.77734	-1339.87537	35.76146	859.39044	-1344.20239	104.55560	811.35486	-919.79877	-131.67082	1397.25427	-816.41650	-199.52104	1202.85095	-810.33002	-205.80191	1078.62708	-774.12006	-188.56561	961.01691	-786.19104	-117.11713	837.49316	-748.32770	-160.86209	843.97241	-746.72394	-130.80475	763.31335	-1157.26538	-64.27512	933.35645	-940.92810	-73.28427	942.45886	-1107.51648	-253.44392	944.49414	-961.85516	-256.25952	947.65283	-1196.01880	-94.21996	598.07800	-1173.09119	-104.35912	464.29861	-1174.49182	-165.25974	282.56467	-1111.06567	-201.83664	70.08189	-1057.27600	-247.24307	42.51786	-1117.11536	-54.55604	33.74662	-865.51178	-35.99556	621.28021	-882.79181	8.27936	469.21082	-885.68848	-106.20873	334.74686	-937.78619	-209.27211	157.37323	-997.29102	-260.82907	139.26837	-917.76941	-108.60805	58.95022	-1035.05005	-48.36985	1710.85693	-3101.90552	1973.18994	1023.37231	-3140.56885	2012.56555	1021.95386			 
109	1.080	-1125.00061	-38.24322	1670.35632	-1011.19867	-26.73290	1676.89282	-1118.91870	-155.01117	1625.01440	-998.06909	-146.13434	1630.78015	-1077.52869	-197.91429	1433.89014	-1062.24658	-234.13629	1141.25183	-1068.60571	-53.17470	1366.87512	-1068.68030	-9.59741	1213.69067	-995.48993	-254.70959	1241.57947	-1232.73523	-106.88073	1391.31604	-1319.03906	-106.68464	1206.35425	-1324.04883	-88.88015	1055.11780	-1340.83850	-12.64996	966.22766	-1311.30859	99.40027	888.00525	-1339.85168	52.97108	863.24280	-1344.39429	122.95182	817.15588	-919.85376	-122.25081	1396.98071	-816.93286	-191.52663	1202.90833	-810.97900	-198.63057	1078.90112	-774.60742	-183.31750	961.24109	-785.98248	-113.83878	836.58282	-748.40997	-157.64459	843.77856	-746.74402	-129.13016	762.48102	-1157.08032	-56.85526	932.99286	-941.47675	-64.13103	942.63647	-1107.24744	-244.94205	944.34705	-961.56042	-246.64017	947.38531	-1196.24719	-89.55310	597.72589	-1173.36182	-101.46235	463.95306	-1174.72070	-163.58397	282.70139	-1111.08008	-201.57967	70.40076	-1057.31213	-247.12602	43.06667	-1117.03296	-54.40431	33.57726	-866.13391	-23.85404	622.65033	-884.19135	22.17989	470.66693	-885.92395	-86.04079	330.13043	-937.29462	-181.21844	148.48862	-996.36078	-232.71234	127.50082	-917.73578	-74.82182	56.53332	-1034.47009	-38.49780	1710.60547	-3101.92993	1973.13196	1023.36230	-3140.63037	2012.54260	1021.94421			 
110	1.090	-1124.50195	-28.40981	1670.20105	-1010.57434	-16.99774	1676.59338	-1118.56824	-145.19189	1625.04114	-997.68335	-136.47923	1630.57605	-1077.48914	-188.31534	1433.74976	-1062.50000	-225.02846	1141.31360	-1068.59448	-43.74103	1366.67969	-1069.03577	-0.38835	1213.45422	-995.79346	-245.43340	1241.50867	-1232.74829	-97.42919	1391.52271	-1319.35461	-96.35041	1206.81567	-1324.73975	-76.52219	1055.65161	-1341.31616	1.79401	968.43048	-1311.45178	115.75816	893.24152	-1339.92029	70.01749	867.17273	-1344.30298	141.12688	822.99384	-919.76178	-113.07329	1396.82629	-817.39502	-183.55597	1202.80872	-811.59277	-191.35838	1079.12402	-775.00586	-178.03110	961.42834	-785.78003	-110.19430	835.70776	-748.53870	-154.57607	843.60284	-746.70209	-127.04559	761.74231	-1157.27173	-48.53030	932.49097	-941.88782	-54.71378	942.78955	-1106.84973	-236.33357	944.21637	-961.05347	-237.05537	947.01538	-1196.46350	-85.00828	597.30487	-1173.65686	-98.47582	463.51926	-1174.91333	-161.76041	282.86182	-1111.15662	-201.33705	70.76342	-1057.39612	-247.30656	43.99418	-1116.98132	-54.23943	33.47856	-866.27490	-11.81408	623.63849	-886.08093	35.15328	471.36563	-886.16608	-65.90239	325.69949	-936.60022	-152.42401	139.55212	-995.30743	-202.98270	115.24510	-917.71222	-40.58730	54.39724	-1033.84302	-28.72893	1710.34534	-3101.81616	1973.23743	1023.31451	-3140.64746	2012.50903	1021.99738			 
